<svg width="25" height="25" viewBox="0 0 25 25" fill="none" xmlns="http://www.w3.org/2000/svg">
<g clip-path="url(#clip0_109_6)">
<path d="M12.5 8.92847V14.2856" stroke="white" stroke-linecap="round" stroke-linejoin="round"/>
<path d="M12.5 20.5357C12.9931 20.5357 13.3929 20.136 13.3929 19.6429C13.3929 19.1497 12.9931 18.75 12.5 18.75C12.0069 18.75 11.6072 19.1497 11.6072 19.6429C11.6072 20.136 12.0069 20.5357 12.5 20.5357Z" stroke="white" stroke-linecap="round" stroke-linejoin="round"/>
<path d="M14.0892 1.87494C13.9394 1.58244 13.7117 1.33697 13.4313 1.16555C13.1509 0.994142 12.8286 0.903442 12.4999 0.903442C12.1713 0.903442 11.849 0.994142 11.5686 1.16555C11.2882 1.33697 11.0605 1.58244 10.9106 1.87494L1.08922 21.5178C0.952236 21.7896 0.887018 22.092 0.899758 22.3961C0.912498 22.7002 1.00277 22.9961 1.16201 23.2555C1.32125 23.5149 1.54416 23.7294 1.80957 23.8784C2.07499 24.0274 2.3741 24.1062 2.6785 24.1071H22.3214C22.6258 24.1062 22.9249 24.0274 23.1903 23.8784C23.4557 23.7294 23.6786 23.5149 23.8379 23.2555C23.9971 22.9961 24.0874 22.7002 24.1001 22.3961C24.1128 22.092 24.0476 21.7896 23.9106 21.5178L14.0892 1.87494Z" stroke="white" stroke-linecap="round" stroke-linejoin="round"/>
</g>
<defs>
<clipPath id="clip0_109_6">
<rect width="25" height="25" fill="white"/>
</clipPath>
</defs>
</svg>
